<svg width="14" height="14" viewBox="0 0 14 14" fill="none" xmlns="http://www.w3.org/2000/svg">
<path fill-rule="evenodd" clip-rule="evenodd" d="M11.1249 11.1241C9.34216 12.907 6.70233 13.2922 4.54204 12.2932C4.22312 12.1648 3.96166 12.061 3.71309 12.061C3.02074 12.0651 2.15897 12.7364 1.71109 12.2891C1.2632 11.8411 1.93503 10.9787 1.93503 10.2822C1.93503 10.0336 1.83537 9.77677 1.70698 9.45723C0.707444 7.29729 1.09319 4.65657 2.87594 2.87421C5.15172 0.59759 8.84914 0.59759 11.1249 2.87362C13.4048 5.15376 13.4007 8.84806 11.1249 11.1241Z" stroke="#767E8C" stroke-width="0.875" stroke-linecap="round" stroke-linejoin="round"/>
<path d="M9.29795 7.24093H9.3032" stroke="#767E8C" stroke-width="1.16667" stroke-linecap="round" stroke-linejoin="round"/>
<path d="M6.95933 7.24093H6.96458" stroke="#767E8C" stroke-width="1.16667" stroke-linecap="round" stroke-linejoin="round"/>
<path d="M4.62071 7.24093H4.62596" stroke="#767E8C" stroke-width="1.16667" stroke-linecap="round" stroke-linejoin="round"/>
</svg>
