<svg width="14" height="14" viewBox="0 0 14 14" fill="none" xmlns="http://www.w3.org/2000/svg">
<path d="M7 1.16667V5.25001L8.16667 4.08334" stroke="#767E8C" stroke-width="0.875" stroke-linecap="round" stroke-linejoin="round"/>
<path d="M7.00004 5.24999L5.83337 4.08333" stroke="#767E8C" stroke-width="0.875" stroke-linecap="round" stroke-linejoin="round"/>
<path d="M1.15503 7.58333H3.72753C3.9492 7.58333 4.14753 7.70583 4.2467 7.90416L4.9292 9.26916C5.12753 9.66583 5.53003 9.91666 5.97336 9.91666H8.03253C8.47586 9.91666 8.87836 9.66583 9.0767 9.26916L9.7592 7.90416C9.85836 7.70583 10.0625 7.58333 10.2784 7.58333H12.8217" stroke="#767E8C" stroke-width="0.875" stroke-linecap="round" stroke-linejoin="round"/>
<path d="M4.08329 2.40916C2.01829 2.7125 1.16663 3.92583 1.16663 6.41666V8.75C1.16663 11.6667 2.33329 12.8333 5.24996 12.8333H8.74996C11.6666 12.8333 12.8333 11.6667 12.8333 8.75V6.41666C12.8333 3.92583 11.9816 2.7125 9.91663 2.40916" stroke="#767E8C" stroke-width="0.875" stroke-linecap="round" stroke-linejoin="round"/>
</svg>
