<svg width="20" height="20" viewBox="0 0 20 20" fill="none" xmlns="http://www.w3.org/2000/svg">
<path d="M17.75 10.1917H14.85C14.0333 10.1917 13.3083 10.6417 12.9417 11.375L12.2417 12.7583C12.075 13.0917 11.7417 13.3 11.375 13.3H8.64166C8.38332 13.3 8.01666 13.2417 7.77499 12.7583L7.07499 11.3833C6.70832 10.6583 5.97499 10.2 5.16666 10.2H2.24999C1.92499 10.2 1.66666 10.4583 1.66666 10.7833V13.5C1.66666 16.525 3.48332 18.3333 6.51666 18.3333H13.5C16.3583 18.3333 18.1167 16.7667 18.3333 13.9833V10.775C18.3333 10.4583 18.075 10.1917 17.75 10.1917Z" fill="#A0AAB8"/>
<path d="M10.625 1.66666C10.625 1.32499 10.3417 1.04166 10 1.04166C9.65833 1.04166 9.375 1.32499 9.375 1.66666V3.33332H10.625V1.66666Z" fill="#A0AAB8"/>
<path d="M18.3333 8.17501V9.04168C18.15 8.97501 17.95 8.94168 17.75 8.94168H14.85C13.5583 8.94168 12.4 9.65834 11.825 10.8083L11.2 12.0417H8.81666L8.19166 10.8167C7.61666 9.65834 6.45832 8.94168 5.16666 8.94168H2.24999C2.04999 8.94168 1.84999 8.97501 1.66666 9.04168V8.17501C1.66666 5.14168 3.47499 3.33334 6.50832 3.33334H9.37499V5.99168L8.77499 5.39168C8.53332 5.15001 8.13332 5.15001 7.89166 5.39168C7.64999 5.63334 7.64999 6.03334 7.89166 6.27501L9.55832 7.94168C9.56666 7.95001 9.57499 7.95001 9.57499 7.95834C9.63332 8.00834 9.69166 8.05001 9.75832 8.07501C9.84166 8.10834 9.91666 8.12501 9.99999 8.12501C10.0833 8.12501 10.1583 8.10834 10.2333 8.07501C10.3083 8.05001 10.3833 8.00001 10.4417 7.94168L12.1083 6.27501C12.35 6.03334 12.35 5.63334 12.1083 5.39168C11.8667 5.15001 11.4667 5.15001 11.225 5.39168L10.625 5.99168V3.33334H13.4917C16.525 3.33334 18.3333 5.14168 18.3333 8.17501Z" fill="#A0AAB8"/>
</svg>
